<?xml version="1.0" encoding="UTF-8"?>
<svg version="1.1" xmlns="http://www.w3.org/2000/svg" width="512" height="512">
<path d="M0 0 C1.08523203 -0.00322445 2.17046406 -0.00644889 3.28858191 -0.00977105 C5.06070497 -0.00744815 5.06070497 -0.00744815 6.8686285 -0.00507832 C8.7637531 -0.00847665 8.7637531 -0.00847665 10.69716305 -0.01194364 C14.19704676 -0.0180525 17.69690656 -0.01792913 21.19679439 -0.01674926 C24.97391971 -0.01654503 28.75103739 -0.02206603 32.52815914 -0.02680683 C39.92452163 -0.03510814 47.32087615 -0.03786141 54.7172429 -0.03841921 C60.72773743 -0.03889447 66.73822933 -0.0409497 72.74872303 -0.04411983 C89.78724343 -0.05292378 106.82575754 -0.05753944 123.86428023 -0.05678936 C125.24169363 -0.05672943 125.24169363 -0.05672943 126.64693356 -0.05666828 C128.02602666 -0.05660696 128.02602666 -0.05660696 129.43298023 -0.0565444 C144.34427506 -0.05613765 159.25554468 -0.06571505 174.16683222 -0.07980665 C189.4753261 -0.09415962 204.78380767 -0.10107748 220.09230846 -0.10021287 C228.68792088 -0.0998806 237.28350684 -0.10264091 245.8791132 -0.11339092 C253.19473717 -0.12248157 260.51032269 -0.1246829 267.82594986 -0.1178815 C271.55920415 -0.11460946 275.29238457 -0.11458425 279.0256319 -0.12323475 C283.06987068 -0.1325097 287.11393734 -0.12634189 291.15817928 -0.11860371 C292.34182538 -0.12374727 293.52547148 -0.12889083 294.74498564 -0.13419026 C295.82760992 -0.12959147 296.9102342 -0.12499267 298.02566528 -0.12025452 C298.9591829 -0.12047188 299.89270052 -0.12068925 300.85450655 -0.12091321 C303.75933477 0.15838538 305.85471097 0.7981655 308.44991207 2.12863445 C310.44991207 5.12863445 310.44991207 5.12863445 310.44991207 8.12863445 C315.06991207 8.12863445 319.68991207 8.12863445 324.44991207 8.12863445 C324.77991207 6.80863445 325.10991207 5.48863445 325.44991207 4.12863445 C327.42004817 1.71074015 328.40498898 1.14360882 331.44991207 0.12863445 C334.06960993 0.02733486 336.6627724 -0.01820649 339.28267574 -0.01662922 C340.07980984 -0.01998783 340.87694393 -0.02334644 341.6982336 -0.02680683 C344.33813181 -0.03631832 346.97796654 -0.03826035 349.61788082 -0.0393343 C351.45530886 -0.04254784 353.29273664 -0.04591198 355.13016415 -0.04942036 C358.98618315 -0.05541289 362.84217975 -0.05726024 366.69820309 -0.05666828 C371.62643808 -0.0565669 376.55452822 -0.07019343 381.48272896 -0.08744049 C385.28069365 -0.09859203 389.07862374 -0.10058648 392.87660313 -0.10005856 C394.69257574 -0.1012349 396.50854936 -0.10563723 398.32450581 -0.11339092 C400.87316355 -0.12325013 403.42151242 -0.12028903 405.97017574 -0.11428547 C406.7128117 -0.11990498 407.45544765 -0.12552448 408.22058773 -0.13131428 C416.7058566 -0.0808327 423.72776321 1.68891076 430.08272457 7.6637907 C437.10253833 15.10750625 436.73968153 23.8167519 436.6904211 33.55575848 C436.69298438 35.41586079 436.69298438 35.41586079 436.69559944 37.31354094 C436.69831585 40.73882757 436.69209694 44.16388366 436.68204331 47.58914232 C436.67338227 51.28910428 436.67633085 54.9890595 436.67784786 58.68902874 C436.67889504 65.0939174 436.67263596 71.49876522 436.66137218 77.90364361 C436.64509742 87.16394308 436.63990716 96.42422286 436.6373962 105.68453509 C436.6330222 120.70985804 436.6197211 135.73515924 436.60079098 150.76047039 C436.58242455 165.35356824 436.56827178 179.94666018 436.55977535 194.53976727 C436.55924991 195.43973814 436.55872446 196.33970902 436.55818309 197.26695174 C436.55557296 201.78197615 436.55304555 206.29700059 436.55055928 210.81202507 C436.52983596 248.25091022 436.49461846 285.68977064 436.44991207 323.12863445 C437.2048193 323.1148576 437.95972652 323.10108074 438.73750973 323.08688641 C439.72799313 323.07617107 440.71847652 323.06545574 441.73897457 323.0544157 C442.7207568 323.04063885 443.70253902 323.02686199 444.71407223 323.01266766 C449.74726581 323.2260147 452.52988296 325.31315411 456.19991207 328.56613445 C460.29960981 333.23523465 460.76709471 336.8458199 460.78584957 342.96457195 C460.79250637 343.72154369 460.79916317 344.47851543 460.80602169 345.25842571 C460.81612806 346.8570644 460.82083933 348.4557451 460.82051754 350.0544157 C460.82488532 352.48872398 460.86120751 354.92120988 460.89913082 357.35519695 C460.90500072 358.91248246 460.90896895 360.46977652 460.91084957 362.02707195 C460.9252206 362.7491383 460.93959164 363.47120464 460.95439816 364.21515179 C460.90857848 369.33353173 459.63026288 372.16879309 456.44991207 376.12863445 C449.71701554 382.67956081 441.95939882 382.42418933 433.10201168 382.40329266 C431.41781376 382.41095905 431.41781376 382.41095905 429.69959164 382.41878033 C426.000425 382.43264328 422.3014453 382.43172237 418.60225582 382.4294157 C416.02588488 382.43330367 413.44951458 382.43763855 410.8731451 382.44240093 C405.47903242 382.44985549 400.08499191 382.4497156 394.69087887 382.44430828 C388.46450805 382.43826255 382.23836287 382.45060033 376.01203054 382.47187835 C370.00789972 382.49163866 364.00388687 382.49466603 357.99971867 382.49114323 C355.45082792 382.49165665 352.90193358 382.4968983 350.35306263 382.50695515 C346.79133706 382.51928682 343.23013507 382.51254757 339.66841793 382.50094891 C338.61630123 382.50859264 337.56418453 382.51623638 336.48018551 382.52411175 C326.83949437 382.45469618 326.83949437 382.45469618 322.44991207 379.12863445 C322.11991207 377.47863445 321.78991207 375.82863445 321.44991207 374.12863445 C316.82991207 374.12863445 312.20991207 374.12863445 307.44991207 374.12863445 C306.78991207 375.77863445 306.12991207 377.42863445 305.44991207 379.12863445 C301.859362 381.97054353 299.12882888 382.50398829 294.61237621 382.50615788 C293.43755035 382.51398112 292.26272448 382.52180436 291.05229783 382.52986467 C289.76564249 382.5231725 288.47898715 382.51648034 287.15334225 382.50958538 C285.76950453 382.5130423 284.38566956 382.5178071 283.00184035 382.52376711 C279.19950894 382.53630281 275.39740311 382.53009506 271.59507084 382.52080846 C267.49404648 382.51402854 263.39306126 382.52449411 259.29204464 382.53274822 C251.25716366 382.54610049 243.22236668 382.54320076 235.18748239 382.5345103 C228.65592066 382.52773815 222.12438249 382.52681501 215.59281826 382.53008175 C214.66357284 382.53054145 213.73432742 382.53100115 212.77692305 382.53147478 C210.88919029 382.53243395 209.00145754 382.53340659 207.1137248 382.53439255 C189.40351334 382.54295131 171.69334843 382.53310569 153.98314461 382.51699145 C138.79170521 382.50359667 123.6003346 382.50590849 108.40889645 382.51974773 C90.76872937 382.53581022 73.12860316 382.54211797 55.48842978 382.53291094 C53.60637618 382.5319553 51.72432256 382.53101219 49.84226894 382.53008175 C48.45326939 382.52938751 48.45326939 382.52938751 47.03620924 382.52867924 C40.51562496 382.5260907 33.99506662 382.53045762 27.47448635 382.53752041 C19.52322745 382.54594341 11.57205738 382.54363881 3.62080863 382.52767818 C-0.43497445 382.51980487 -4.49060956 382.51668765 -8.54639149 382.52662563 C-12.26241554 382.53559315 -15.97815506 382.53060604 -19.69415346 382.51469298 C-21.66860268 382.50977705 -23.6430718 382.51952354 -25.61750007 382.52986467 C-33.11854728 382.4803543 -40.65241961 382.29902046 -46.70633793 377.3747282 C-47.14977543 376.77789227 -47.59321293 376.18105633 -48.05008793 375.56613445 C-48.74618168 374.66701336 -48.74618168 374.66701336 -49.45633793 373.7497282 C-51.91906819 370.09961014 -51.74531567 366.79708454 -51.78836918 362.5231657 C-51.79644093 361.76573574 -51.80451267 361.00830578 -51.81282902 360.22792339 C-51.82667095 358.62152679 -51.83739262 357.01510076 -51.84525394 355.40866375 C-51.86240106 352.96773548 -51.90627523 350.52818538 -51.95047855 348.08761883 C-51.9606117 346.52447772 -51.96912586 344.96132511 -51.97586918 343.3981657 C-51.99337727 342.67498653 -52.01088535 341.95180737 -52.02892399 341.20671368 C-52.00598045 335.76609489 -50.65111245 332.61457576 -47.55008793 328.12863445 C-42.59987839 324.28969645 -39.05857484 322.99324049 -32.86258793 323.06613445 C-31.86872074 323.07515789 -30.87485355 323.08418133 -29.85086918 323.0934782 C-28.71198246 323.11088055 -28.71198246 323.11088055 -27.55008793 323.12863445 C-27.55179667 322.17522642 -27.55179667 322.17522642 -27.55353993 321.20255762 C-27.62068575 283.52477692 -27.67215347 245.84700508 -27.70328392 208.16917679 C-27.707036 203.64435073 -27.71091897 199.11952479 -27.71488285 194.59469891 C-27.71566978 193.69389404 -27.71645671 192.79308917 -27.71726749 191.86498719 C-27.73031858 177.28256474 -27.75397079 162.70017779 -27.78154632 148.1177764 C-27.80960878 133.15298094 -27.82626597 118.18820406 -27.83235341 103.22338337 C-27.83646811 93.99056499 -27.84946039 84.75784699 -27.87383733 75.52505951 C-27.88970488 69.19231851 -27.89448597 62.85962934 -27.89059206 56.5268699 C-27.8886721 52.87413047 -27.89159889 49.22156635 -27.90770435 45.56885815 C-27.92505581 41.60451196 -27.91904038 37.64039297 -27.91085148 33.67601299 C-27.91959 32.52716218 -27.92832853 31.37831137 -27.93733186 30.19464689 C-27.88242059 20.3589856 -26.23302692 13.03242818 -19.37821293 5.7887907 C-13.77745412 0.70263153 -7.29531046 0.00550403 0 0 Z " fill="#9FE456" transform="translate(51.55008792877197,64.87136554718018)"/>
<path d="M0 0 C0.79713409 -0.00335861 1.59426819 -0.00671722 2.41555786 -0.01017761 C5.05545606 -0.0196891 7.6952908 -0.02163113 10.33520508 -0.02270508 C12.17263312 -0.02591862 14.0100609 -0.02928276 15.8474884 -0.03279114 C19.70350741 -0.03878367 23.55950401 -0.04063102 27.41552734 -0.04003906 C32.34376234 -0.03993768 37.27185248 -0.05356421 42.20005322 -0.07081127 C45.99801791 -0.08196281 49.795948 -0.08395727 53.59392738 -0.08342934 C55.4099 -0.08460569 57.22587362 -0.08900801 59.04183006 -0.0967617 C61.59048781 -0.10662091 64.13883668 -0.10365981 66.6875 -0.09765625 C67.43013596 -0.10327576 68.17277191 -0.10889526 68.93791199 -0.11468506 C77.42318086 -0.06420348 84.44508747 1.70553998 90.80004883 7.68041992 C97.81986258 15.12413547 97.45700578 23.83338112 97.40774536 33.5723877 C97.41030864 35.43249001 97.41030864 35.43249001 97.41292369 37.33017015 C97.4156401 40.75545679 97.40942119 44.18051288 97.39936757 47.60577154 C97.39070652 51.3057335 97.39365511 55.00568871 97.39517212 58.70565796 C97.39621929 65.11054662 97.38996022 71.51539444 97.37869644 77.92027283 C97.36242168 87.1805723 97.35723141 96.44085208 97.35472046 105.70116431 C97.35034646 120.72648726 97.33704535 135.75178846 97.31811523 150.77709961 C97.29974881 165.37019746 97.28559603 179.9632894 97.27709961 194.55639648 C97.27657416 195.45636736 97.27604872 196.35633824 97.27550735 197.28358096 C97.27289721 201.79860537 97.27036981 206.31362981 97.26788354 210.82865429 C97.24716022 248.26753944 97.21194272 285.70639986 97.16723633 323.14526367 C97.92214355 323.13148682 98.67705078 323.11770996 99.45483398 323.10351562 C100.44531738 323.09280029 101.43580078 323.08208496 102.45629883 323.07104492 C103.43808105 323.05726807 104.41986328 323.04349121 105.43139648 323.02929688 C110.46459007 323.24264392 113.24720722 325.32978332 116.91723633 328.58276367 C121.01693406 333.25186387 121.48441897 336.86244912 121.50317383 342.98120117 C121.50983063 343.73817291 121.51648743 344.49514465 121.52334595 345.27505493 C121.53345232 346.87369362 121.53816359 348.47237432 121.5378418 350.07104492 C121.54220957 352.50535319 121.57853177 354.9378391 121.61645508 357.37182617 C121.62232497 358.92911167 121.62629321 360.48640574 121.62817383 362.04370117 C121.64254486 362.76576752 121.65691589 363.48783386 121.67172241 364.23178101 C121.62590274 369.35016095 120.34758714 372.18542231 117.16723633 376.14526367 C110.4343398 382.69619002 102.67672307 382.44081855 93.81933594 382.41992188 C92.13513802 382.42758827 92.13513802 382.42758827 90.41691589 382.43540955 C86.71774925 382.4492725 83.01876955 382.44835159 79.31958008 382.44604492 C76.74320914 382.44993289 74.16683883 382.45426777 71.59046936 382.45903015 C66.19635667 382.46648471 60.80231617 382.46634482 55.40820312 382.4609375 C49.18183231 382.45489177 42.95568713 382.46722955 36.7293548 382.48850757 C30.72522398 382.50826788 24.72121113 382.51129525 18.71704292 382.50777245 C16.16815218 382.50828587 13.61925784 382.51352752 11.07038689 382.52358437 C7.50866132 382.53591604 3.94745933 382.52917679 0.38574219 382.51757812 C-0.66637451 382.52522186 -1.71849121 382.5328656 -2.80249023 382.54074097 C-8.17468884 382.50205969 -12.27354268 382.34343259 -16.83276367 379.14526367 C-18.00761924 375.7675539 -18.02106629 373.8357066 -17.08276367 370.39526367 C-15.83276367 368.14526367 -15.83276367 368.14526367 -12.83276367 366.14526367 C-10.62077045 365.88355064 -10.62077045 365.88355064 -7.99226379 365.86679077 C-6.49677254 365.85004555 -6.49677254 365.85004555 -4.97106934 365.83296204 C-3.87846802 365.83080185 -2.7858667 365.82864166 -1.66015625 365.82641602 C-0.50879684 365.81637039 0.64256256 365.80632477 1.82881165 365.79597473 C5.6434376 365.76502561 9.457993 365.74807486 13.27270508 365.73120117 C15.91401278 365.71249898 18.55531445 365.69292629 21.1966095 365.67251587 C27.44385189 365.62571216 33.69111144 365.58897581 39.93843967 365.555843 C47.05088494 365.51763281 54.16323851 365.46821979 61.27560651 365.41785884 C75.90608421 365.31451532 90.53662005 365.22674176 105.16723633 365.14526367 C105.16723633 356.89526367 105.16723633 348.64526367 105.16723633 340.14526367 C103.44534497 340.14379711 101.72345362 340.14233055 99.94938374 340.14081955 C59.0967112 340.10513567 18.24411026 340.04892073 -22.60849757 339.96734272 C-27.63418038 339.95732498 -32.65986351 339.9474809 -37.68554688 339.93774414 C-38.68609127 339.93580277 -39.68663567 339.93386139 -40.71749959 339.93186119 C-56.92893353 339.90082023 -73.14035331 339.8838547 -89.35181137 339.87206945 C-105.98000848 339.85966874 -122.60813111 339.83219181 -139.23628122 339.79065061 C-149.50093621 339.76548423 -159.76546774 339.75214868 -170.03015403 339.7538341 C-177.06420665 339.7538638 -184.09813329 339.73928052 -191.13213684 339.71309939 C-195.19349441 339.69841756 -199.25459361 339.690281 -203.31597328 339.69946098 C-207.03270009 339.70772002 -210.74890673 339.69767081 -214.46555618 339.67292705 C-216.45014701 339.66451456 -218.43479099 339.67581302 -220.41936368 339.68776202 C-221.59625644 339.67631443 -222.7731492 339.66486684 -223.98570538 339.65307236 C-225.00145726 339.65155348 -226.01720914 339.65003459 -227.06374139 339.64846969 C-230.61896926 339.00238892 -232.30657664 337.69158933 -234.83276367 335.14526367 C-235.39526367 331.64526367 -235.39526367 331.64526367 -234.83276367 328.14526367 C-232.69893431 325.31338397 -231.52602715 324.26563147 -227.99796677 323.65307236 C-226.89550236 323.65675953 -225.79303795 323.6604467 -224.65716553 323.66424561 C-222.75573288 323.65599762 -222.75573288 323.65599762 -220.81588745 323.64758301 C-219.41363146 323.66173871 -218.0113793 323.67627794 -216.60913086 323.69116211 C-215.13072745 323.69229055 -213.65232179 323.69165679 -212.17391968 323.68939209 C-208.16169151 323.68824386 -204.14994113 323.7117704 -200.13782406 323.73968792 C-195.94446672 323.76468362 -191.75109857 323.76704212 -187.55767822 323.77178955 C-179.61744586 323.78422474 -171.67743365 323.81705362 -163.73729825 323.85718751 C-154.69750532 323.90188838 -145.65770191 323.92388801 -136.61782598 323.94396925 C-118.02268038 323.98578583 -99.42773972 324.05614838 -80.83276367 324.14526367 C-80.85894775 323.46012695 -80.88513184 322.77499023 -80.91210938 322.0690918 C-81.0168283 318.92805434 -81.08132515 315.78738526 -81.14526367 312.64526367 C-81.1871582 311.56760742 -81.22905273 310.48995117 -81.2722168 309.37963867 C-81.38043403 302.2805882 -80.52823848 297.60009823 -75.83276367 292.14526367 C-70.45936228 287.03397942 -65.96638564 286.9936852 -58.79467773 286.96826172 C-57.98764404 286.96169052 -57.18061035 286.95511932 -56.34912109 286.948349 C-53.68220927 286.92866255 -51.01535364 286.91696361 -48.34838867 286.90698242 C-47.43530693 286.90290689 -46.52222519 286.89883137 -45.5814743 286.89463234 C-40.74824756 286.87379115 -35.91504904 286.85948116 -31.08178711 286.85009766 C-26.10075161 286.83903906 -21.12016353 286.80463989 -16.13928604 286.76492596 C-12.29928785 286.73872849 -8.45939579 286.73040303 -4.6193161 286.72681618 C-2.7837802 286.7219581 -0.9482488 286.7103664 0.8871994 286.69177818 C3.46234698 286.66732028 6.03634309 286.66836363 8.61157227 286.67529297 C9.73719574 286.65607788 9.73719574 286.65607788 10.88555908 286.63647461 C16.38193547 286.69007788 20.554602 288.13671251 25.16723633 291.14526367 C34.23661773 300.45331301 31.16723633 309.3794786 31.16723633 323.14526367 C47.66723633 323.14526367 64.16723633 323.14526367 81.16723633 323.14526367 C81.13014896 284.5958652 81.07438823 246.04655598 80.98931538 207.49723176 C80.97929751 202.94965223 80.96945345 198.40207233 80.9597168 193.85449219 C80.95777542 192.94912284 80.95583405 192.0437535 80.95383385 191.11094872 C80.92278391 176.4371973 80.90582486 161.76346153 80.8940421 147.08968344 C80.88164603 132.04124903 80.85417966 116.992897 80.81262326 101.94451457 C80.78744352 92.65334057 80.7741223 83.3623031 80.77580675 74.07109449 C80.77583643 67.70610544 80.761273 61.34125581 80.73507205 54.97632106 C80.72037467 51.30000355 80.71226668 47.62397196 80.72143364 43.94762993 C80.73118954 39.96792649 80.71029508 35.98872963 80.68621826 32.00907898 C80.69397868 30.83886017 80.7017391 29.66864136 80.70973468 28.46296138 C80.69828709 27.40151937 80.6868395 26.34007737 80.67504501 25.24647045 C80.67352613 24.32716753 80.67200725 23.40786461 80.67044234 22.46070403 C80.35679904 20.01022412 80.35679904 20.01022412 78.36793542 18.34967643 C75.00104085 16.50702071 71.62241928 16.7395162 67.88208008 16.77636719 C66.63263107 16.77071747 66.63263107 16.77071747 65.35794067 16.76495361 C63.55188115 16.75852454 61.74578779 16.758848 59.93972778 16.76513863 C57.0816585 16.77424344 54.22424598 16.7640326 51.36621094 16.7485199 C43.24162825 16.70839883 35.11709689 16.70722054 26.99243164 16.70947266 C22.02101835 16.7095237 17.0499599 16.69038388 12.0786438 16.66013908 C9.26215915 16.64929476 6.44634609 16.66145483 3.62988281 16.67396545 C1.90404593 16.66506284 0.17821455 16.65498908 -1.54760742 16.64355469 C-2.33110565 16.65329819 -3.11460388 16.66304169 -3.92184448 16.67308044 C-7.41272822 16.62685935 -9.44225629 16.43351623 -12.28808594 14.33287048 C-14.47827574 11.23107519 -14.83276367 8.91905509 -14.83276367 5.14526367 C-10.86616022 -0.23798387 -6.19301541 -0.00372841 0 0 Z " fill="#030200" transform="translate(390.832763671875,64.854736328125)"/>
<path d="M0 0 C1.08523203 -0.00322445 2.17046406 -0.00644889 3.28858191 -0.00977105 C5.06070497 -0.00744815 5.06070497 -0.00744815 6.8686285 -0.00507832 C8.7637531 -0.00847665 8.7637531 -0.00847665 10.69716305 -0.01194364 C14.19704676 -0.0180525 17.69690656 -0.01792913 21.19679439 -0.01674926 C24.97391971 -0.01654503 28.75103739 -0.02206603 32.52815914 -0.02680683 C39.92452163 -0.03510814 47.32087615 -0.03786141 54.7172429 -0.03841921 C60.72773743 -0.03889447 66.73822933 -0.0409497 72.74872303 -0.04411983 C89.78724343 -0.05292378 106.82575754 -0.05753944 123.86428023 -0.05678936 C125.24169363 -0.05672943 125.24169363 -0.05672943 126.64693356 -0.05666828 C128.02602666 -0.05660696 128.02602666 -0.05660696 129.43298023 -0.0565444 C144.34427506 -0.05613765 159.25554468 -0.06571505 174.16683222 -0.07980665 C189.4753261 -0.09415962 204.78380767 -0.10107748 220.09230846 -0.10021287 C228.68792088 -0.0998806 237.28350684 -0.10264091 245.8791132 -0.11339092 C253.19473717 -0.12248157 260.51032269 -0.1246829 267.82594986 -0.1178815 C271.55920415 -0.11460946 275.29238457 -0.11458425 279.0256319 -0.12323475 C283.06987068 -0.1325097 287.11393734 -0.12634189 291.15817928 -0.11860371 C292.34182538 -0.12374727 293.52547148 -0.12889083 294.74498564 -0.13419026 C295.82760992 -0.12959147 296.9102342 -0.12499267 298.02566528 -0.12025452 C298.9591829 -0.12047188 299.89270052 -0.12068925 300.85450655 -0.12091321 C303.75933477 0.15838538 305.85471097 0.7981655 308.44991207 2.12863445 C310.44991207 5.12863445 310.44991207 5.12863445 310.38741207 8.56613445 C309.44991207 12.12863445 309.44991207 12.12863445 307.66793156 14.32011604 C302.62570082 17.15383634 297.71323614 16.67402472 292.0241003 16.62742901 C290.74787654 16.63281356 289.47165278 16.63819812 288.15675557 16.64374584 C284.61640127 16.65819856 281.07648694 16.64782582 277.53614831 16.63346279 C273.71744195 16.62235223 269.89880143 16.63434006 266.08010006 16.6436491 C259.46396873 16.65674301 252.84796373 16.65557336 246.23182964 16.64505482 C236.66274667 16.63012406 227.09381212 16.64002282 217.52473761 16.656574 C201.99539724 16.68303782 186.46609016 16.69389377 170.93672848 16.69284344 C170.00727111 16.69278511 169.07781374 16.69272679 168.12019099 16.6926667 C164.3538245 16.69240083 160.58745801 16.69208354 156.82109153 16.69170344 C146.44817839 16.69073679 136.07526627 16.69206557 125.70235348 16.69479656 C124.30895429 16.6951564 124.30895429 16.6951564 122.88740562 16.69552351 C107.41395664 16.6999258 91.94053863 16.71614108 76.46710789 16.74001735 C66.91840632 16.75410975 57.36982213 16.75694861 47.82111646 16.74539446 C41.28334777 16.73808718 34.74563833 16.74110931 28.20787536 16.7523529 C24.43231346 16.7584428 20.65691712 16.75946968 16.88136578 16.74747562 C12.79470297 16.73457075 8.70842104 16.74454669 4.62175655 16.75682354 C2.81901644 16.74545946 2.81901644 16.74545946 0.97985733 16.7338658 C-0.65470628 16.74435042 -0.65470628 16.74435042 -2.32229137 16.75504684 C-3.73819 16.75464231 -3.73819 16.75464231 -5.18269265 16.75422961 C-7.57467973 16.96325618 -7.57467973 16.96325618 -9.35277766 18.33218217 C-10.96119758 20.74546611 -10.92889232 22.35180862 -10.93484879 25.2454586 C-10.94430533 26.310384 -10.95376187 27.3753094 -10.96350497 28.47250527 C-10.95865739 29.64661503 -10.95380982 30.82072479 -10.94881535 32.03041363 C-10.95546217 33.27437682 -10.962109 34.51834001 -10.96895725 35.79999906 C-10.98441988 39.2594515 -10.98641872 42.7184457 -10.98282778 46.1779002 C-10.98220552 49.90593421 -10.99880909 53.63389541 -11.01334476 57.36189556 C-11.03616821 63.82306419 -11.04802231 70.28417878 -11.05247402 76.74538517 C-11.05892626 86.08724623 -11.08184725 95.42900944 -11.10881732 104.77083115 C-11.15212341 119.92646212 -11.18206831 135.08208899 -11.20365238 150.23776531 C-11.22465063 164.96206973 -11.25191563 179.68634049 -11.28763676 194.41061687 C-11.28983558 195.31787536 -11.29203441 196.22513385 -11.29429986 197.15988501 C-11.30536923 201.71123103 -11.31656209 206.26257673 -11.32781637 210.81392229 C-11.42105557 248.58546396 -11.49262844 286.35702225 -11.55008793 324.12863445 C-9.7372456 324.1186417 -9.7372456 324.1186417 -7.88778019 324.10844707 C3.48683709 324.04770287 14.86142158 324.002694 26.23616409 323.97319794 C32.08441889 323.95752408 37.93254303 323.93625433 43.78072262 323.90231609 C49.42170342 323.86978414 55.06255833 323.8517944 60.70362568 323.84400272 C62.85867642 323.83844813 65.01372006 323.82760175 67.16871738 323.81144428 C70.18097755 323.7897521 73.19271367 323.7866641 76.20503902 323.78805828 C77.54939274 323.77187954 77.54939274 323.77187954 78.92090511 323.75537395 C79.74120205 323.75949795 80.56149899 323.76362194 81.4066534 323.7678709 C82.11919938 323.76510552 82.83174536 323.76234015 83.56588364 323.75949097 C86.07234032 324.25058873 86.93904669 325.09191043 88.44991207 327.12863445 C89.15771184 332.70255762 89.15771184 332.70255762 88.44991207 335.12863445 C86.2550732 337.65432959 84.42900081 338.97223448 81.08988667 339.50562572 C78.04009989 339.66258459 75.01232306 339.68856523 71.95845699 339.67453289 C70.79705196 339.68487057 69.63564693 339.69520824 68.43904781 339.70585918 C64.60268487 339.73534155 60.76684827 339.73678758 56.93038082 339.73800945 C54.26948997 339.75298743 51.60865431 339.76951883 48.9477911 339.78811932 C42.66162571 339.82865415 36.37556399 339.84901401 30.08928806 339.86209321 C22.93081156 339.87797187 15.77251126 339.91639105 8.61413705 339.9566865 C-6.1072195 340.03905089 -20.82854525 340.09018922 -35.55008793 340.12863445 C-35.55008793 348.37863445 -35.55008793 356.62863445 -35.55008793 365.12863445 C-32.9517897 365.13083429 -32.9517897 365.13083429 -30.3010006 365.13307858 C10.79604827 365.16876231 51.89302596 365.22497705 92.99001051 365.30655541 C98.04573587 365.31657315 103.10146155 365.32641723 108.15718746 365.33615398 C109.6669759 365.33906604 109.6669759 365.33906604 111.20726512 365.34203693 C127.51569697 365.37307805 143.82411475 365.39004347 160.13257059 365.40182868 C176.86020855 365.4142293 193.58777247 365.44170604 210.31536371 365.48324752 C220.64143745 365.50841413 230.96738846 365.52174943 241.29349331 365.52006403 C248.36959516 365.52003432 255.44557176 365.53461726 262.52162483 365.56079873 C266.60728512 365.57548083 270.69268858 365.58361689 274.77837086 365.57443714 C278.51730156 365.56617839 282.25571517 365.57622654 285.99456898 365.60097107 C287.99108967 365.60938399 289.98766319 365.59808479 291.98416585 365.5861361 C293.1680254 365.59758369 294.35188495 365.60903128 295.57161903 365.62082577 C296.59344644 365.62234465 297.61527385 365.62386353 298.66806573 365.62542844 C302.21670423 366.26733889 303.89450141 367.62802387 306.44991207 370.12863445 C307.51241207 373.06613445 307.51241207 373.06613445 307.44991207 376.12863445 C305.34963061 379.5040868 304.24788323 380.86264407 300.44991207 382.12863445 C298.58797743 382.22307505 296.72279866 382.25777194 294.85847187 382.26006222 C293.6876281 382.26390336 292.51678433 382.26774451 291.31046045 382.27170205 C290.01797942 382.27083557 288.7254984 382.26996909 287.39385128 382.26907635 C286.01174258 382.27165941 284.62963463 382.2746724 283.24752772 382.27807975 C279.44074875 382.28616018 275.63398862 382.2879399 271.82720208 382.28867722 C267.7247897 382.290526 263.62238715 382.29807254 259.51998043 382.30481243 C250.54463476 382.31840453 241.56929355 382.32442207 232.5939393 382.32882309 C226.99014949 382.3315845 221.3863614 382.33582171 215.78257275 382.34032726 C200.26936546 382.35252196 184.75615956 382.3628203 169.24294758 382.36620235 C168.24969962 382.36642192 167.25645166 382.36664149 166.23310528 382.36686771 C165.23746619 382.36708598 164.2418271 382.36730426 163.21601713 382.36752915 C161.19844174 382.36797262 159.18086636 382.36841918 157.16329098 382.36886883 C155.66210708 382.36920097 155.66210708 382.36920097 154.13059624 382.36953983 C137.91879791 382.37348675 121.70704457 382.39093667 105.49526362 382.41422835 C88.85343077 382.43794496 72.21162048 382.45040438 55.56977046 382.45157027 C46.22502769 382.45248695 36.8803435 382.45823738 27.53561687 382.47638988 C19.57700139 382.49179516 11.61846258 382.49690888 3.65983503 382.48865178 C-0.39999277 382.48474655 -4.4596662 382.48566857 -8.51947498 382.49970913 C-12.23926648 382.51245591 -15.95878773 382.51124383 -19.6785789 382.49911842 C-21.65512203 382.4962393 -23.63166985 382.50809143 -25.60817587 382.52054048 C-33.11522103 382.47884586 -40.64719994 382.30326617 -46.70633793 377.3747282 C-47.14977543 376.77789227 -47.59321293 376.18105633 -48.05008793 375.56613445 C-48.74618168 374.66701336 -48.74618168 374.66701336 -49.45633793 373.7497282 C-51.91906819 370.09961014 -51.74531567 366.79708454 -51.78836918 362.5231657 C-51.79644093 361.76573574 -51.80451267 361.00830578 -51.81282902 360.22792339 C-51.82667095 358.62152679 -51.83739262 357.01510076 -51.84525394 355.40866375 C-51.86240106 352.96773548 -51.90627523 350.52818538 -51.95047855 348.08761883 C-51.9606117 346.52447772 -51.96912586 344.96132511 -51.97586918 343.3981657 C-51.99337727 342.67498653 -52.01088535 341.95180737 -52.02892399 341.20671368 C-52.00598045 335.76609489 -50.65111245 332.61457576 -47.55008793 328.12863445 C-42.59987839 324.28969645 -39.05857484 322.99324049 -32.86258793 323.06613445 C-31.86872074 323.07515789 -30.87485355 323.08418133 -29.85086918 323.0934782 C-28.71198246 323.11088055 -28.71198246 323.11088055 -27.55008793 323.12863445 C-27.55179667 322.17522642 -27.55179667 322.17522642 -27.55353993 321.20255762 C-27.62068575 283.52477692 -27.67215347 245.84700508 -27.70328392 208.16917679 C-27.707036 203.64435073 -27.71091897 199.11952479 -27.71488285 194.59469891 C-27.71566978 193.69389404 -27.71645671 192.79308917 -27.71726749 191.86498719 C-27.73031858 177.28256474 -27.75397079 162.70017779 -27.78154632 148.1177764 C-27.80960878 133.15298094 -27.82626597 118.18820406 -27.83235341 103.22338337 C-27.83646811 93.99056499 -27.84946039 84.75784699 -27.87383733 75.52505951 C-27.88970488 69.19231851 -27.89448597 62.85962934 -27.89059206 56.5268699 C-27.8886721 52.87413047 -27.89159889 49.22156635 -27.90770435 45.56885815 C-27.92505581 41.60451196 -27.91904038 37.64039297 -27.91085148 33.67601299 C-27.91959 32.52716218 -27.92832853 31.37831137 -27.93733186 30.19464689 C-27.88242059 20.3589856 -26.23302692 13.03242818 -19.37821293 5.7887907 C-13.77745412 0.70263153 -7.29531046 0.00550403 0 0 Z " fill="#010100" transform="translate(51.55008792877197,64.87136554718018)"/>
<path d="M0 0 C4.95 0 9.9 0 15 0 C15.99 2.475 15.99 2.475 17 5 C20.40864387 7.27242925 21.5966687 7.25208132 25.59816933 7.25891972 C27.35661027 7.26919291 27.35661027 7.26919291 29.15057528 7.27967364 C30.44462232 7.27705678 31.73866935 7.27443993 33.07192993 7.27174377 C34.45561743 7.2760284 35.83930245 7.28119081 37.22298372 7.28715843 C41.03382163 7.30105838 44.84457986 7.30251404 48.65543938 7.30201519 C52.76180166 7.30364898 56.8681286 7.3167686 60.97447205 7.32855225 C68.09206637 7.34743946 75.2096435 7.35913521 82.32725906 7.36609077 C92.61929411 7.3762458 102.91127701 7.39829852 113.20328502 7.42347669 C129.90178846 7.46409597 146.60029688 7.49654977 163.29882812 7.52319336 C164.29872526 7.52479066 165.29862239 7.52638796 166.32881944 7.52803367 C167.8305827 7.53043202 167.8305827 7.53043202 169.36268461 7.53287882 C183.56243195 7.55557428 197.76217417 7.58020482 211.96191406 7.60717773 C213.46084898 7.61002195 213.46084898 7.61002195 214.99006541 7.61292363 C231.62734538 7.64465643 248.26461534 7.68040258 264.90188253 7.71821922 C275.17362389 7.74130595 285.44535836 7.76024327 295.7171167 7.77388596 C302.7487246 7.78338583 309.78032101 7.79621103 316.81191827 7.81169481 C320.87474938 7.82049411 324.9375662 7.82757637 329.00040627 7.83033562 C332.71353831 7.83287232 336.42663272 7.83989748 340.13974993 7.85060786 C342.13213234 7.85512668 344.12452408 7.85466224 346.11691153 7.85406977 C347.28399 7.85831082 348.45106847 7.86255186 349.65351295 7.86692142 C350.6691575 7.86849532 351.68480205 7.87006922 352.7312237 7.87169081 C355 8 355 8 356 9 C356.09959621 10.84159023 356.13080411 12.68696967 356.1328125 14.53125 C356.13410156 15.65144531 356.13539063 16.77164062 356.13671875 17.92578125 C356.13285156 19.10527344 356.12898438 20.28476562 356.125 21.5 C356.12886719 22.67949219 356.13273437 23.85898437 356.13671875 25.07421875 C356.13478516 26.75451172 356.13478516 26.75451172 356.1328125 28.46875 C356.13168457 29.50451172 356.13055664 30.54027344 356.12939453 31.60742188 C356 34 356 34 355 35 C353.47623011 35.10576533 351.94760552 35.14239257 350.42019653 35.15148926 C349.43028717 35.15983292 348.44037781 35.16817657 347.42047119 35.17677307 C346.32539246 35.18095749 345.23031372 35.18514191 344.10205078 35.18945312 C342.95580231 35.19774643 341.80955383 35.20603973 340.62857056 35.21458435 C338.1300103 35.23203106 335.63143326 35.24718506 333.13284683 35.26036072 C329.18331788 35.28131363 325.23387311 35.30834295 321.28439331 35.33703613 C312.89796377 35.39720029 304.51148943 35.44898569 296.125 35.5 C286.417684 35.55908416 276.71041074 35.62142278 267.00317001 35.69187927 C263.10386209 35.71852078 259.20455021 35.73929707 255.3052063 35.7598877 C252.92238161 35.77648773 250.5395588 35.79335931 248.15673828 35.81054688 C247.06570801 35.81473129 245.97467773 35.81891571 244.85058594 35.82322693 C243.85503693 35.83157059 242.85948792 35.83991425 241.83377075 35.84851074 C240.53460818 35.85624134 240.53460818 35.85624134 239.20919991 35.86412811 C236.82391289 35.9156986 236.82391289 35.9156986 234 37 C232.77479736 40.00847418 232.77479736 40.00847418 232 43 C219.2393624 43.9212225 219.2393624 43.9212225 216.25 41.69921875 C215.25 40.0625 215.25 40.0625 214 37 C211.37488216 35.68744108 209.43503627 35.8702155 206.49364376 35.86412811 C205.31637405 35.85927037 204.13910435 35.85441262 202.9261598 35.84940767 C201.62141803 35.84911169 200.31667625 35.8488157 198.97239685 35.84851074 C197.58132446 35.84466318 196.19025323 35.84037615 194.79918343 35.83568525 C190.96330314 35.82401369 187.12743475 35.81855369 183.29154027 35.81405044 C179.15994771 35.80811373 175.02837109 35.79644318 170.89678955 35.78541565 C163.73389034 35.76704492 156.57099078 35.75220809 149.40807915 35.73963928 C139.05052273 35.72137287 128.69298907 35.69670803 118.33545066 35.67026538 C101.53101416 35.62744588 84.72657139 35.58833617 67.92211914 35.55224609 C66.91567528 35.55008329 65.90923141 35.54792049 64.87228925 35.54569215 C56.70479265 35.52816834 48.53729567 35.51082355 40.36979866 35.49348927 C33.22903552 35.47832708 26.08827253 35.46309446 18.94750977 35.44775391 C17.94198311 35.44559504 16.93645645 35.44343617 15.90045928 35.44121188 C-0.84075165 35.4051477 -17.58195112 35.36519856 -34.32314628 35.32245111 C-44.66007761 35.29624664 -54.99700539 35.27359951 -65.33395409 35.25546753 C-72.41089347 35.24283345 -79.48781926 35.22671988 -86.56474466 35.20781839 C-90.65389599 35.19702495 -94.74303406 35.18791936 -98.83219719 35.18312263 C-102.56942677 35.17871367 -106.30661643 35.1697999 -110.04382705 35.15717942 C-112.04917929 35.15162822 -114.05454334 35.15104648 -116.0599032 35.15059233 C-117.23456516 35.14573458 -118.40922712 35.14087684 -119.6194849 35.13587189 C-120.64174705 35.13375592 -121.66400919 35.13163995 -122.71724898 35.12945986 C-125 35 -125 35 -126 34 C-126.09959621 32.15840977 -126.13080411 30.31303033 -126.1328125 28.46875 C-126.13410156 27.34855469 -126.13539062 26.22835938 -126.13671875 25.07421875 C-126.13285156 23.89472656 -126.12898438 22.71523438 -126.125 21.5 C-126.12886719 20.32050781 -126.13273437 19.14101563 -126.13671875 17.92578125 C-126.13542969 16.80558594 -126.13414063 15.68539063 -126.1328125 14.53125 C-126.13168457 13.49548828 -126.13055664 12.45972656 -126.12939453 11.39257812 C-126 9 -126 9 -125 8 C-123.46774292 7.90288911 -121.93102224 7.87535395 -120.39569092 7.87542725 C-119.40025772 7.87286423 -118.40482452 7.87030121 -117.37922668 7.86766052 C-115.72729561 7.87081017 -115.72729561 7.87081017 -114.04199219 7.87402344 C-112.88920273 7.8721553 -111.73641327 7.87028717 -110.5486908 7.86836243 C-108.03538996 7.86434719 -105.52208545 7.86228256 -103.00878143 7.86190033 C-99.03350129 7.85936648 -95.05831351 7.84793838 -91.08306885 7.83233643 C-90.07751029 7.82847715 -90.07751029 7.82847715 -89.05163741 7.8245399 C-87.6804758 7.81927298 -86.30931426 7.8139875 -84.93815279 7.80868387 C-75.68027134 7.77355539 -66.42250436 7.74702026 -57.16455078 7.74951172 C-50.92445904 7.75110078 -44.68468402 7.73505176 -38.4446938 7.69880509 C-35.14173142 7.68034533 -31.83941686 7.67373832 -28.53639984 7.68328094 C-24.84896692 7.69287004 -21.16289579 7.67177835 -17.47558594 7.64355469 C-16.38239548 7.65375137 -15.28920502 7.66394806 -14.16288757 7.67445374 C-8.04390261 7.62052325 -8.04390261 7.62052325 -2.84527588 4.58477783 C-1.02017757 2.17011431 -1.02017757 2.17011431 0 0 Z " fill="#FE9416" transform="translate(141,396)"/>
<path d="M0 0 C159.06 0 318.12 0 482 0 C482 3.3 482 6.6 482 10 C480.3889971 11.6110029 478.64981281 11.13821048 476.42019653 11.15148926 C475.43028717 11.15983292 474.44037781 11.16817657 473.42047119 11.17677307 C472.32539246 11.18095749 471.23031372 11.18514191 470.10205078 11.18945312 C468.95580231 11.19774643 467.80955383 11.20603973 466.62857056 11.21458435 C464.1300103 11.23203106 461.63143326 11.24718506 459.13284683 11.26036072 C455.18331788 11.28131363 451.23387311 11.30834295 447.28439331 11.33703613 C438.89796377 11.39720029 430.51148943 11.44898569 422.125 11.5 C412.417684 11.55908416 402.71041074 11.62142278 393.00317001 11.69187927 C389.10386209 11.71852078 385.20455021 11.73929707 381.3052063 11.7598877 C378.92238161 11.77648773 376.5395588 11.79335931 374.15673828 11.81054688 C373.06570801 11.81473129 371.97467773 11.81891571 370.85058594 11.82322693 C369.85503693 11.83157059 368.85948792 11.83991425 367.83377075 11.84851074 C366.53460818 11.85624134 366.53460818 11.85624134 365.20919991 11.86412811 C362.82391289 11.9156986 362.82391289 11.9156986 360 13 C358.77479736 16.00847418 358.77479736 16.00847418 358 19 C345.2393624 19.9212225 345.2393624 19.9212225 342.25 17.69921875 C341.25 16.0625 341.25 16.0625 340 13 C337.37488216 11.68744108 335.43503627 11.8702155 332.49364376 11.86412811 C331.31637405 11.85927037 330.13910435 11.85441262 328.9261598 11.84940767 C327.62141803 11.84911169 326.31667625 11.8488157 324.97239685 11.84851074 C323.58132446 11.84466318 322.19025323 11.84037615 320.79918343 11.83568525 C316.96330314 11.82401369 313.12743475 11.81855369 309.29154027 11.81405044 C305.15994771 11.80811373 301.02837109 11.79644318 296.89678955 11.78541565 C289.73389034 11.76704492 282.57099078 11.75220809 275.40807915 11.73963928 C265.05052273 11.72137287 254.69298907 11.69670803 244.33545066 11.67026538 C227.53101416 11.62744588 210.72657139 11.58833617 193.92211914 11.55224609 C192.91567528 11.55008329 191.90923141 11.54792049 190.87228925 11.54569215 C182.70479265 11.52816834 174.53729567 11.51082355 166.36979866 11.49348927 C159.22903552 11.47832708 152.08827253 11.46309446 144.94750977 11.44775391 C143.94198311 11.44559504 142.93645645 11.44343617 141.90045928 11.44121188 C125.15924835 11.4051477 108.41804888 11.36519856 91.67685372 11.32245111 C81.33992239 11.29624664 71.00299461 11.27359951 60.66604591 11.25546753 C53.58910653 11.24283345 46.51218074 11.22671988 39.43525534 11.20781839 C35.34610401 11.19702495 31.25696594 11.18791936 27.16780281 11.18312263 C23.43057323 11.17871367 19.69338357 11.1697999 15.95617295 11.15717942 C13.95082071 11.15162822 11.94545666 11.15104648 9.9400968 11.15059233 C8.76543484 11.14573458 7.59077288 11.14087684 6.3805151 11.13587189 C5.35825295 11.13375592 4.33599081 11.13163995 3.28275102 11.12945986 C1 11 1 11 0 10 C0 6.7 0 3.4 0 0 Z " fill="#EF7F0F" transform="translate(15,420)"/>
<path d="M0 0 C89.1 0 178.2 0 270 0 C270 3.63 270 7.26 270 11 C269.22970553 11.00238835 268.45941107 11.00477671 267.66577435 11.00723743 C248.93799912 11.06632821 230.21035636 11.14184008 211.48272228 11.23571491 C202.42623748 11.28071421 193.36979237 11.32011925 184.31323242 11.34643555 C176.42114974 11.36938224 168.52919223 11.40274275 160.63720876 11.44870156 C156.45697969 11.47267889 152.27687492 11.49137801 148.0965786 11.49761391 C144.16408697 11.5036445 140.23191358 11.5235702 136.29953957 11.55427551 C134.85435823 11.56308842 133.40913536 11.56677162 131.96392822 11.56500816 C129.99436362 11.56336331 128.02481237 11.58177126 126.05534363 11.60127258 C124.95195743 11.60588155 123.84857122 11.61049051 122.71174908 11.61523914 C119.99540234 11.78210354 119.99540234 11.78210354 118.18404102 13.33742046 C116.80183787 15.10657657 116.80183787 15.10657657 116 18 C111.05 18 106.1 18 101 18 C100.67 18.66 100.34 19.32 100 20 C99.690625 18.865625 99.38125 17.73125 99.0625 16.5625 C98.37075469 13.21224901 98.37075469 13.21224901 97 12 C93.98723889 11.87465012 90.99630417 11.81387984 87.98217773 11.79467773 C86.56281418 11.77982834 86.56281418 11.77982834 85.11477661 11.76467896 C81.97107489 11.73296197 78.82735802 11.70826639 75.68359375 11.68359375 C73.51025488 11.66303302 71.33692009 11.64203679 69.16358948 11.62062073 C63.43103326 11.56530905 57.69844042 11.51594003 51.96582031 11.46777344 C46.12106042 11.41762465 40.276354 11.3619041 34.43164062 11.30664062 C22.95447272 11.19894787 11.47725847 11.09752775 0 11 C0 7.37 0 3.74 0 0 Z " fill="#82CE51" transform="translate(40,378)"/>
<path d="M0 0 C1.11433914 0.00303635 1.11433914 0.00303635 2.25119019 0.00613403 C3.41942825 0.00350555 3.41942825 0.00350555 4.61126709 0.00082397 C7.19829505 -0.00359493 9.78525522 -0.00065643 12.37228394 0.00271606 C14.16207899 0.00204304 15.95187396 0.00107302 17.7416687 -0.00018311 C21.49778105 -0.00166013 25.25386966 0.00049462 29.00997925 0.00515747 C33.83578887 0.01085476 38.66154288 0.00757578 43.48735046 0.00158501 C47.18466616 -0.00202048 50.88196858 -0.00088208 54.57928467 0.0017128 C56.35917162 0.0023821 58.13905975 0.00155353 59.91894531 -0.00076675 C62.40212216 -0.00329309 64.88520768 0.00054702 67.36837769 0.00613403 C68.11127045 0.0041098 68.85416321 0.00208557 69.61956787 0 C74.69552132 0.02126595 74.69552132 0.02126595 75.80978394 1.13552856 C75.80978394 8.06552856 75.80978394 14.99552856 75.80978394 22.13552856 C48.74978394 22.13552856 21.68978394 22.13552856 -6.19021606 22.13552856 C-6.19021606 0.0259342 -6.19021606 0.0259342 0 0 Z " fill="#233543" transform="translate(331.1902160644531,366.8644714355469)"/>
<path d="M0 0 C26.4 0 52.8 0 80 0 C80 3.63 80 7.26 80 11 C53.6 11 27.2 11 0 11 C0 7.37 0 3.74 0 0 Z " fill="#2C4355" transform="translate(326,367)"/>
<path d="M0 0 C16.5 0 33 0 50 0 C50 3.3 50 6.6 50 10 C33.5 10 17 10 0 10 C0 6.7 0 3.4 0 0 Z " fill="#87D654" transform="translate(422,378)"/>
</svg>
